:version 1.10
:name ASF
:units
  mass 1
  length 1
  angle deg
:documentation
  ASF file generated by Kaydara
:root
  axis xyz
  order  tx ty tz rx ry rz
  position 0 0 0
  orientation 0 0 0
:bonedata
  begin
    id 1
    name abdomenDummy
    direction 1 -1.27917e-005 -1.26829e-007
    length 1.79048
    axis 0 0 0 xyz
  end
  begin
    id 2
    name abdomen
    direction 0.987238 0.159249 -9.68575e-008
    length 8.61378
    axis 2.73208e-005 5.54953e-006 9.16328 xyz
    dof rx ry rz
  end
  begin
    id 3
    name chest
    direction 0 0 0
    length 0
    axis 2.65071e-005 8.63688e-006 2.59796 xyz
    dof rx ry rz
  end
  begin
    id 4
    name neckDummyDummy
    direction 0.998972 0.0453274 -1.50742e-007
    length 9.56202
    axis 2.65071e-005 8.63688e-006 2.59796 xyz
  end
  begin
    id 5
    name neckDummy
    direction 0.99977 0.0214525 -1.61748e-007
    length 1.93574
    axis 2.62932e-005 9.26758e-006 1.22924 xyz
    dof rx ry rz
  end
  begin
    id 6
    name neck
    direction 0.99928 -0.0379406 -1.88707e-007
    length 3.70367
    axis 2.56966e-005 1.08122e-005 -2.17436 xyz
    dof rx ry rz
  end
  begin
    id 7
    name head
    direction 0.992648 -0.121037 -2.25408e-007
    length 6.35158
    axis 2.47068e-005 1.29149e-005 -6.95196 xyz
    dof rx ry rz
  end
  begin
    id 8
    name figureHair
    direction -0.86681 -0.498639 -7.83376e-008
    length 8.29884
    axis -2.7515e-005 4.48842e-006 -150.09 xyz
    dof rx ry rz
  end
  begin
    id 9
    name lCollarDummy
    direction 0.994611 0.0451299 -0.0933417
    length 9.60395
    axis 2.65071e-005 8.63688e-006 2.59796 xyz
  end
  begin
    id 10
    name lCollar
    direction 0.0384146 0.00127577 -0.999261
    length 6.95318
    axis 90.4899 87.7973 1.90202 xyz
    dof rx ry rz
  end
  begin
    id 11
    name lShldr
    direction -0.030648 0.0920515 -0.995282
    length 9.61158
    axis -161.793 84.4324 108.415 xyz
    dof rx ry rz
  end
  begin
    id 12
    name lForeArm
    direction 0.000163956 -0.0977586 -0.99521
    length 8.6068
    axis 0.134773 84.3899 -89.8525 xyz
    dof rx ry rz
  end
  begin
    id 13
    name lHand
    direction -0.0190533 -0.1444 -0.989336
    length 7.61479
    axis -7.3729 81.6249 -97.517 xyz
    dof rx ry rz
  end
  begin
    id 14
    name rCollarDummy
    direction 0.994871 0.0442627 0.0909555
    length 9.60761
    axis 2.65071e-005 8.63688e-006 2.59796 xyz
  end
  begin
    id 15
    name rCollar
    direction 0.0334251 -4.74072e-007 0.999441
    length 6.97058
    axis -178.152 -88.0845 -0.000674207 xyz
    dof rx ry rz
  end
  begin
    id 16
    name rShldr
    direction -0.026922 0.0719509 0.997045
    length 9.60913
    axis 71.2822 -85.594 110.514 xyz
    dof rx ry rz
  end
  begin
    id 17
    name rForeArm
    direction 0.00134679 -0.118986 0.992895
    length 8.57176
    axis -88.7923 -83.1659 -89.3516 xyz
    dof rx ry rz
  end
  begin
    id 18
    name rHand
    direction -0.0185183 -0.0768601 0.99687
    length 7.69687
    axis -74.5596 -85.4655 -103.546 xyz
    dof rx ry rz
  end
  begin
    id 19
    name lThighDummy
    direction -0.236086 -0.0385456 -0.970967
    length 4.99155
    axis 0 0 0 xyz
  end
  begin
    id 20
    name lThigh
    direction -0.993968 0.0148998 -0.108653
    length 13.572
    axis -91.4001 6.23768 179.141 xyz
    dof rx ry rz
  end
  begin
    id 21
    name lShin
    direction -0.992341 0.0904576 -0.0841193
    length 18.5862
    axis -91.4558 4.82538 174.792 xyz
    dof rx ry rz
  end
  begin
    id 22
    name lFoot
    direction 0.0209381 -0.999771 -0.00453005
    length 8.44474
    axis 4.86759 0.259522 -88.8001 xyz
    dof rx ry rz
  end
  begin
    id 23
    name rThighDummy
    direction -0.236086 -0.0385456 0.970967
    length 4.99155
    axis 0 0 0 xyz
  end
  begin
    id 24
    name rThigh
    direction -0.993968 0.0148995 0.108653
    length 13.5721
    axis -89.7059 -6.2377 179.141 xyz
    dof rx ry rz
  end
  begin
    id 25
    name rShin
    direction -0.9925 0.0899962 0.0827255
    length 18.6716
    axis -89.2745 -4.74775 174.819 xyz
    dof rx ry rz
  end
  begin
    id 26
    name rFoot
    direction 0.0301721 -0.999545 9.70865e-005
    length 8.45013
    axis -2.50066e-005 -0.00555246 -88.271 xyz
    dof rx ry rz
  end
:hierarchy
  begin
    root abdomenDummy lThighDummy rThighDummy
    abdomenDummy abdomen
    abdomen chest
    chest neckDummyDummy lCollarDummy rCollarDummy
    neckDummyDummy neckDummy
    neckDummy neck
    neck head
    head figureHair
    lCollarDummy lCollar
    lCollar lShldr
    lShldr lForeArm
    lForeArm lHand
    rCollarDummy rCollar
    rCollar rShldr
    rShldr rForeArm
    rForeArm rHand
    lThighDummy lThigh
    lThigh lShin
    lShin lFoot
    rThighDummy rThigh
    rThigh rShin
    rShin rFoot
  end

:SAMPLES-PER-SECOND 25
:FULLY-SPECIFIED
:DEGREES
142
root  -55.9445 37.2778 27.3334 159.146 1.93703 90.0785
abdomen  -1.45877 1.21036 -6.28931
chest  -1.39646 1.22596 -10.4538
neckDummy  3.03321e-021 0 6.73878e-016
neck  -7.19043 12.0241 21.5311
head  -13.2636 -19.0347 -1.00952
figureHair  0 0 -1.04948e-014
lCollar  -3.38943e-016 -6.49156e-016 -7.51406e-014
lShldr  17.4874 1.07804 -72.7146
lForeArm  37.563 -7.23625 -7.06091
lHand  0.254698 0.195082 5.2986
rCollar  2.67893e-016 -5.20816e-014 1.63997e-015
rShldr  -2.06869 57.94 -13.1474
rForeArm  12.7184 1.49959 10.951
rHand  0.377746 -17.6411 2.21568
lThigh  -5.19777 -11.0219 -3.42123
lShin  -17.5766 5.08727 -6.05742
lFoot  4.0783 -0.357414 -2.58393
rThigh  14.47 -7.71911 -8.06639
rShin  12.2183 13.3212 4.1536
rFoot  -0.589718 0.182599 1.24978
143
root  -55.8402 37.2878 27.1101 158.723 1.82324 89.9852
abdomen  -1.39897 1.67408 -6.1943
chest  -1.47579 0.152894 -10.1373
neckDummy  3.03321e-021 0 6.73878e-016
neck  -6.57479 12.4244 21.0998
head  -12.7946 -18.7955 -1.18139
figureHair  0 0 -1.04948e-014
lCollar  -3.38943e-016 -6.49156e-016 -7.51406e-014
lShldr  18.4314 -2.86486 -72.1769
lForeArm  32.7662 -10.8573 -4.76792
lHand  0.254698 0.195082 5.2986
rCollar  2.67893e-016 -5.20816e-014 1.63997e-015
rShldr  -4.3639 60.2846 -15.6693
rForeArm  9.91865 1.38923 12.1236
rHand  0.203224 -18.7384 3.32593
lThigh  -5.56863 -10.7207 -2.8267
lShin  -17.4886 4.77387 -6.1054
lFoot  4.08658 -0.336305 -3.15062
rThigh  14.4668 -7.12148 -7.72775
rShin  11.8167 12.4551 4.53329
rFoot  -0.246267 0.129828 1.16319
144
root  -55.7354 37.3 26.8604 158.579 1.76279 89.9429
abdomen  -1.15831 2.59974 -6.1361
chest  -1.48556 -1.67 -9.52219
neckDummy  3.03321e-021 0 6.73878e-016
neck  -6.10402 13.3697 20.2955
head  -12.7149 -18.7483 -1.14874
figureHair  0 0 -1.04948e-014
lCollar  -3.38943e-016 -6.49156e-016 -7.51406e-014
lShldr  19.4098 -6.12179 -71.8158
lForeArm  26.628 -16.3767 -1.61017
lHand  0.254698 0.195082 5.2986
rCollar  2.67893e-016 -5.20816e-014 1.63997e-015
rShldr  -8.26296 62.556 -18.7281
rForeArm  4.98498 1.40041 13.8474
rHand  0.232117 -18.4529 3.10827
lThigh  -5.73852 -10.2882 -2.38495
lShin  -17.3691 3.95877 -6.07529
lFoot  4.88531 -0.399989 -4.44545
rThigh  14.2685 -6.78511 -7.27964
rShin  11.8774 11.9563 4.71373
rFoot  -0.173696 0.120899 1.17036
145
root  -55.6447 37.3088 26.61 158.766 1.66302 89.9547
abdomen  -1.31637 3.32987 -5.95096
chest  -1.83612 -2.83563 -9.22376
neckDummy  3.03321e-021 0 6.73878e-016
neck  -5.73658 12.9293 20.4873
head  -12.044 -17.9584 -1.77518
figureHair  0 0 -1.04948e-014
lCollar  -3.38943e-016 -6.49156e-016 -7.51406e-014
lShldr  14.3292 -8.60351 -70.9274
lForeArm  27.5035 -23.6678 -0.394874
lHand  0.254698 0.195082 5.2986
rCollar  2.67893e-016 -5.20816e-014 1.63997e-015
rShldr  -11.8659 65.51 -21.0163
rForeArm  -0.260517 1.29997 15.7152
rHand  0.381114 -15.0852 1.81085
lThigh  -5.74191 -10.2433 -2.1059
lShin  -17.0057 3.55931 -5.81327
lFoot  6.31016 -0.377254 -5.88743
rThigh  14.0286 -6.77245 -6.7416
rShin  12.5256 12.0137 4.86919
rFoot  -0.718861 0.185903 1.09545
146
root  -55.6035 37.3086 26.3743 159.116 1.53531 89.8169
abdomen  -1.69516 3.91918 -5.79772
chest  -2.33591 -3.44186 -9.16776
neckDummy  3.03321e-021 0 6.73878e-016
neck  -5.46879 11.7281 21.2204
head  -11.0891 -16.778 -2.8595
figureHair  0 0 -1.04948e-014
lCollar  -3.38943e-016 -6.49156e-016 -7.51406e-014
lShldr  8.75594 -10.3277 -69.3602
lForeArm  33.956 -32.0979 -0.0761079
lHand  0.254698 0.195082 5.2986
rCollar  2.67893e-016 -5.20816e-014 1.63997e-015
rShldr  -14.5342 68.4411 -22.7385
rForeArm  -3.41431 1.16449 17.495
rHand  0.293571 -13.5331 2.10053
lThigh  -5.83186 -10.028 -1.8189
lShin  -16.3977 3.35209 -5.62453
lFoot  6.85942 -0.333325 -6.77078
rThigh  13.7971 -6.61959 -6.25415
rShin  13.1489 12.2441 4.95603
rFoot  -1.36599 0.271152 1.09931
147
root  -55.6074 37.3123 26.1586 159.17 1.42203 89.6332
abdomen  -1.74471 4.68103 -5.63347
chest  -2.59943 -4.77452 -8.92709
neckDummy  3.03321e-021 0 6.73878e-016
neck  -5.00092 12.1699 21.3013
head  -10.7437 -16.1695 -3.49653
figureHair  0 0 -1.04948e-014
lCollar  -3.38943e-016 -6.49156e-016 -7.51406e-014
lShldr  5.66273 -11.2124 -67.3885
lForeArm  42.582 -39.9302 0.362276
lHand  0.254698 0.195082 5.2986
rCollar  2.67893e-016 -5.20816e-014 1.63997e-015
rShldr  -13.2931 69.6177 -21.8037
rForeArm  -3.89061 1.12444 18.2356
rHand  0.17316 -15.1932 3.19082
lThigh  -6.16397 -9.50301 -1.38154
lShin  -15.951 3.03617 -5.68058
lFoot  6.74056 -0.319069 -7.23117
rThigh  13.601 -6.32704 -5.87658
rShin  13.4102 12.3199 5.00149
rFoot  -1.71818 0.320317 1.1283
148
root  -55.6358 37.3269 25.9729 158.739 1.36843 89.5704
abdomen  -1.51403 5.23292 -5.15899
chest  -2.59414 -6.16616 -8.59938
neckDummy  3.03321e-021 0 6.73878e-016
neck  -4.26029 13.5107 20.5676
head  -10.5792 -16.2274 -3.65618
figureHair  0 0 -1.04948e-014
lCollar  -3.38943e-016 -6.49156e-016 -7.51406e-014
lShldr  3.49035 -11.2571 -64.5909
lForeArm  48.2062 -45.4313 0.733239
lHand  0.254698 0.195082 5.2986
rCollar  2.67893e-016 -5.20816e-014 1.63997e-015
rShldr  -5.73951 68.3693 -16.1261
rForeArm  -3.97646 1.18124 17.0046
rHand  0.204509 -15.6994 3.03007
lThigh  -6.50711 -9.04947 -0.975216
lShin  -15.981 2.75613 -5.78122
lFoot  7.06213 -0.308962 -7.67952
rThigh  13.5092 -6.17291 -5.61949
rShin  13.2073 12.2449 5.07979
rFoot  -1.85889 0.328421 1.02461
149
root  -55.708 37.3464 25.8216 157.997 1.37269 89.3802
abdomen  -1.24038 5.04846 -4.38762
chest  -2.34112 -6.31081 -8.64696
neckDummy  3.03321e-021 0 6.73878e-016
neck  -3.96899 13.7759 19.5739
head  -10.2855 -15.5152 -3.71801
figureHair  0 0 -1.04948e-014
lCollar  -3.38943e-016 -6.49156e-016 -7.51406e-014
lShldr  0.842969 -10.8972 -60.7221
lForeArm  47.8344 -47.783 0.916801
lHand  0.254698 0.195082 5.2986
rCollar  2.67893e-016 -5.20816e-014 1.63997e-015
rShldr  4.32142 64.8805 -9.25245
rForeArm  -2.89978 1.23189 14.7452
rHand  0.303093 -15.5532 2.37903
lThigh  -6.63335 -8.23522 -0.791744
lShin  -16.4817 2.16557 -5.86192
lFoot  7.48149 -0.297721 -8.09696
rThigh  13.4233 -5.91859 -5.4592
rShin  12.5661 12.0758 5.02316
rFoot  -2.03582 0.339128 0.903134
150
root  -55.8249 37.3597 25.6947 157.236 1.30654 88.9442
abdomen  -0.886333 4.16709 -3.69251
chest  -1.84508 -5.72982 -8.88016
neckDummy  3.03321e-021 0 6.73878e-016
neck  -3.7766 14.2435 18.3798
head  -10.1627 -15.4085 -3.81746
figureHair  0 0 -1.04948e-014
lCollar  -3.38943e-016 -6.49156e-016 -7.51406e-014
lShldr  -2.01213 -10.2585 -56.417
lForeArm  44.5883 -47.3673 0.885345
lHand  0.254698 0.195082 5.2986
rCollar  2.67893e-016 -5.20816e-014 1.63997e-015
rShldr  12.0839 59.5236 -5.20182
rForeArm  -0.104251 1.0727 13.1575
rHand  0.277005 -16.6283 2.68407
lThigh  -6.78646 -6.95449 -0.622017
lShin  -17.0066 1.41972 -6.06212
lFoot  7.32011 -0.284206 -8.24088
rThigh  13.248 -5.35829 -5.30413
rShin  11.8278 11.9014 4.78458
rFoot  -2.28307 0.373082 0.921198
151
root  -55.9378 37.3606 25.5807 156.801 1.13361 88.5249
abdomen  -0.756716 2.82891 -3.15238
chest  -1.46971 -4.6159 -9.11982
neckDummy  3.03321e-021 0 6.73878e-016
neck  -3.75187 14.2304 17.2804
head  -10.0011 -15.2486 -3.83642
figureHair  0 0 -1.04948e-014
lCollar  -3.38943e-016 -6.49156e-016 -7.51406e-014
lShldr  -4.38397 -9.1335 -51.8373
lForeArm  42.3999 -44.62 0.678325
lHand  0.254698 0.195082 5.2986
rCollar  2.67893e-016 -5.20816e-014 1.63997e-015
rShldr  17.6766 53.272 -2.96233
rForeArm  1.65121 0.83897 12.3448
rHand  0.206135 -16.9887 3.15253
lThigh  -7.10982 -6.01601 -0.320622
lShin  -16.972 1.23849 -6.2719
lFoot  6.9059 -0.27506 -8.12831
rThigh  13.0908 -4.72664 -5.11233
rShin  11.4429 11.8056 4.62529
rFoot  -2.42216 0.404712 1.04949
